<svg width="100" height="27" viewBox="0 0 100 27" fill="none" xmlns="http://www.w3.org/2000/svg">
<path d="M48.14 6.3H42.05V21H48.14C52.193 21 55.28 17.808 55.28 13.65C55.28 9.492 52.193 6.3 48.14 6.3ZM48.14 16.926H46.46V10.374H48.14C49.841 10.374 51.08 11.697 51.08 13.65C51.08 15.603 49.841 16.926 48.14 16.926ZM64.1226 21.336C68.4696 21.336 71.9136 17.997 71.9136 13.65C71.9136 9.303 68.4696 5.964 64.1226 5.964C59.7756 5.964 56.3316 9.303 56.3316 13.65C56.3316 17.997 59.7756 21.336 64.1226 21.336ZM64.1226 17.22C62.0436 17.22 60.5316 15.687 60.5316 13.65C60.5316 11.613 62.0436 10.08 64.1226 10.08C66.2016 10.08 67.7136 11.613 67.7136 13.65C67.7136 15.687 66.2016 17.22 64.1226 17.22ZM81.0695 20.979H85.5635L82.6655 15.498C84.0515 14.658 84.9335 13.23 84.9335 11.445C84.9335 8.274 82.5395 6.279 79.3685 6.279H73.4885V20.979H77.6885V16.359H78.7385L81.0695 20.979ZM77.6885 10.143H79.2845C80.1665 10.143 80.7335 10.668 80.7335 11.529C80.7335 12.39 80.1665 12.894 79.2845 12.873H77.6885V10.143ZM99.3073 6.3H94.6453L92.2303 11.466L89.8153 6.3H85.1533L90.1303 15.414V21H94.3303V15.414L99.3073 6.3Z" fill="#FFF"/>
<path d="M24 14C24 14.0876 24 14.1752 24 14.2628C23.9875 14.8509 23.9373 15.439 23.8371 16.0021C22.8846 21.6705 17.9342 26 11.9812 26H0V18.9927C0 18.2669 0.112794 17.5662 0.313316 16.903C0.66423 15.7893 1.27833 14.7883 2.09295 13.9875C2.54413 13.5495 3.04543 13.1741 3.59687 12.8613C4.59948 12.2982 5.76501 11.9854 7.00574 11.9854H22.4084C22.8971 11.9854 23.3859 12.0354 23.8496 12.1355C23.9499 12.7487 24 13.3743 24 14Z" fill="#BEEBFF"/>
<path d="M24 14C24 14.0876 24 14.1752 24 14.2628C23.9875 14.8509 23.9373 15.439 23.8371 16.0021H7.01828C5.77755 16.0021 4.61201 15.6767 3.6094 15.1262C3.05796 14.8259 2.55666 14.438 2.10548 14C1.29086 13.1992 0.66423 12.2106 0.313316 11.097C0.112794 10.4338 0 9.73306 0 9.0073V2H11.9812C17.9843 2 22.9598 6.39207 23.8621 12.1481C23.9499 12.7487 24 13.3743 24 14Z" fill="#58C2F0"/>
</svg>
